:FULLY-SPECIFIED
:FORCE-ALL-JOINTS-BE-3DOF
:DEGREES
1121
root 1.10233 14.6626 -27.5909 361.761 3.88351 365.195
lfemur -28.0576 7.848 -27.3345
ltibia 70.0605 0 0
lfoot -26.5587 32.1828 0
ltoes -12.066 0 0
rfemur -52.32 -12.1279 14.1583
rtibia 97.4524 0 0
rfoot -2.95006 0.685445 0
rtoes -8.31587 0 0
lowerback 14.3861 1.40939 -11.629
upperback -0.647998 0.0353376 0.472036
thorax -8.83875 0.584167 7.17335
lowerneck -4.94638 -2.7121 -5.03462
upperneck 3.72494 -3.85098 4.72806
head 2.59239 -1.88202 1.96767
lclavicle -5.15739e-14 -1.4704e-14 0
lhumerus 31.8163 -12.0882 64.6074
lradius 89.005 0 0
lwrist 39.3807 0 0
lhand -27.1919 27.6987 0
lfingers 7.12502 0 0
lthumb -0.609155 57.3478 0
rclavicle -5.15739e-14 -1.4704e-14 0
rhumerus -9.64858 12.1483 -78.1736
rradius 84.3932 0 0
rwrist -25.1955 0 0
rhand -27.3704 -51.3725 0
rfingers 7.12502 0 0
rthumb -0.773589 -81.2087 0
1122
root 1.07391 14.658 -27.4104 361.425 4.82167 365.291
lfemur -26.8345 7.64052 -27.0697
ltibia 69.706 0 0
lfoot -26.8212 32.4227 0
ltoes -11.9882 0 0
rfemur -52.3686 -12.0972 13.7614
rtibia 96.2133 0 0
rfoot -2.48688 1.0608 0
rtoes -7.94878 0 0
lowerback 14.3197 1.4983 -11.7032
upperback -0.608888 0.143764 0.373692
thorax -8.7771 0.632997 7.0851
lowerneck -4.81234 -3.07274 -5.36447
upperneck 3.89422 -4.35087 4.9942
head 2.67294 -2.13001 2.0723
lclavicle -4.80896e-14 -1.38567e-14 0
lhumerus 28.2517 -12.1542 66.1571
lradius 89.6462 0 0
lwrist 39.8114 0 0
lhand -26.5458 26.7515 0
lfingers 7.12502 0 0
lthumb 0.0143379 56.3879 0
rclavicle -4.80896e-14 -1.38567e-14 0
rhumerus -6.84528 11.357 -76.5906
rradius 84.4794 0 0
rwrist -23.5403 0 0
rhand -27.9053 -51.2614 0
rfingers 7.12502 0 0
rthumb -1.28989 -81.0895 0
1123
root 1.04421 14.6521 -27.235 361.096 5.73944 365.365
lfemur -25.6386 7.45725 -26.7779
ltibia 69.3609 0 0
lfoot -27.0757 32.6356 0
ltoes -11.921 0 0
rfemur -52.3556 -12.0635 13.3521
rtibia 94.8969 0 0
rfoot -2.0367 1.41185 0
rtoes -7.60367 0 0
lowerback 14.2497 1.58669 -11.7621
upperback -0.570263 0.25434 0.280621
thorax -8.71419 0.682209 6.99331
lowerneck -4.67692 -3.42729 -5.69056
upperneck 4.06827 -4.8428 5.25841
head 2.75512 -2.37403 2.17609
lclavicle -4.44331e-14 -1.29118e-14 0
lhumerus 24.6933 -12.2066 67.6979
lradius 90.2928 0 0
lwrist 40.2209 0 0
lhand -25.8994 25.7975 0
lfingers 7.12502 0 0
lthumb 0.638194 55.4212 0
rclavicle -4.44331e-14 -1.29118e-14 0
rhumerus -4.07344 10.5658 -75.0041
rradius 84.5938 0 0
rwrist -21.9051 0 0
rhand -28.4289 -51.1231 0
rfingers 7.12502 0 0
rthumb -1.79537 -80.9425 0
1124
root 1.0133 14.645 -27.0643 360.775 6.63867 365.421
lfemur -24.4672 7.29627 -26.4606
ltibia 69.0229 0 0
lfoot -27.3222 32.8232 0
ltoes -11.8648 0 0
rfemur -52.2862 -12.0275 12.9318
rtibia 93.5103 0 0
rfoot -1.5999 1.73998 0
rtoes -7.27948 0 0
lowerback 14.1765 1.67456 -11.8067
upperback -0.532207 0.366829 0.192469
thorax -8.65037 0.731745 6.89823
lowerneck -4.54014 -3.77626 -6.01314
upperneck 4.24635 -5.32742 5.52085
head 2.83868 -2.61441 2.27913
lclavicle -4.06209e-14 -1.1879e-14 0
lhumerus 21.1402 -12.2467 69.2302
lradius 90.9442 0 0
lwrist 40.6124 0 0
lhand -25.2529 24.8401 0
lfingers 7.12502 0 0
lthumb 1.26209 54.4511 0
rclavicle -4.06209e-14 -1.1879e-14 0
rhumerus -1.33084 9.77478 -73.4141
rradius 84.7341 0 0
rwrist -20.2893 0 0
rhand -28.9419 -50.9586 0
rfingers 7.12502 0 0
rthumb -2.2906 -80.7688 0
1125
root 0.981236 14.6367 -26.8976 360.461 7.52123 365.459
lfemur -23.3179 7.15568 -26.1192
ltibia 68.6894 0 0
lfoot -27.5602 32.9875 0
ltoes -11.8197 0 0
rfemur -52.1658 -11.9902 12.502
rtibia 92.0602 0 0
rfoot -1.17688 2.04657 0
rtoes -6.97516 0 0
lowerback 14.1009 1.76191 -11.8381
upperback -0.494807 0.480992 0.108883
thorax -8.58601 0.781553 6.80011
lowerneck -4.40201 -4.12016 -6.33246
upperneck 4.42768 -5.80536 5.78172
head 2.92338 -2.85148 2.38149
lclavicle -3.66693e-14 -1.07684e-14 0
lhumerus 17.5916 -12.2759 70.7545
lradius 91.5998 0 0
lwrist 40.9886 0 0
lhand -24.6068 23.8823 0
lfingers 7.12502 0 0
lthumb 1.88569 53.4808 0
rclavicle -3.66693e-14 -1.07684e-14 0
rhumerus 1.38472 8.98402 -71.8205
rradius 84.8984 0 0
rwrist -18.6918 0 0
rhand -29.4449 -50.7693 0
rfingers 7.12502 0 0
rthumb -2.77619 -80.5697 0
1126
root 0.948074 14.6274 -26.7344 360.155 8.38895 365.481
lfemur -22.1881 7.03354 -25.7552
ltibia 68.3583 0 0
lfoot -27.7895 33.1301 0
ltoes -11.7861 0 0
rfemur -51.9994 -11.9524 12.064
rtibia 90.5537 0 0
rfoot -0.768041 2.33304 0
rtoes -6.68966 0 0
lowerback 14.0232 1.84872 -11.8574
upperback -0.458146 0.596593 0.0295068
thorax -8.52148 0.831576 6.69919
lowerneck -4.26255 -4.45949 -6.64877
upperneck 4.61152 -6.27729 6.04119
head 3.00895 -3.08557 2.48326
lclavicle -3.25949e-14 -9.5898e-15 0
lhumerus 14.0467 -12.2955 72.271
lradius 92.2591 0 0
lwrist 41.3527 0 0
lhand -23.9612 22.9276 0
lfingers 7.12502 0 0
lthumb 2.50867 52.5136 0
rclavicle -3.25949e-14 -9.5898e-15 0
rhumerus 4.07546 8.19355 -70.2234
rradius 85.0844 0 0
rwrist -17.1119 0 0
rhand -29.9385 -50.5561 0
rfingers 7.12502 0 0
rthumb -3.25272 -80.3464 0
1127
root 0.913875 14.6173 -26.574 359.857 9.2437 365.489
lfemur -21.075 6.92794 -25.37
ltibia 68.0271 0 0
lfoot -28.0099 33.253 0
ltoes -11.7642 0 0
rfemur -51.7923 -11.9151 11.6191
rtibia 88.9977 0 0
rfoot -0.373765 2.60076 0
rtoes -6.42192 0 0
lowerback 13.944 1.93499 -11.8654
upperback -0.422311 0.713394 -0.0460125
thorax -8.45712 0.88176 6.59572
lowerneck -4.12176 -4.79477 -6.96232
upperneck 4.79709 -6.74384 6.29945
head 3.09515 -3.31699 2.58451
lclavicle -2.84142e-14 -8.35309e-15 0
lhumerus 10.5047 -12.3069 73.7803
lradius 92.9216 0 0
lwrist 41.7076 0 0
lhand -23.3167 21.979 0
lfingers 7.12502 0 0
lthumb 3.13071 51.5527 0
rclavicle -2.84142e-14 -8.35309e-15 0
rhumerus 6.74357 7.40342 -68.6226
rradius 85.2902 0 0
rwrist -15.5485 0 0
rhand -30.4233 -50.3203 0
rfingers 7.12502 0 0
rthumb -3.72078 -80.1 0
1128
root 0.8787 14.6063 -26.416 359.567 10.0873 365.484
lfemur -19.9762 6.83697 -24.965
ltibia 67.6935 0 0
lfoot -28.2209 33.3579 0
ltoes -11.7544 0 0
rfemur -51.5497 -11.8791 11.1689
rtibia 87.399 0 0
rfoot 0.00555014 2.85114 0
rtoes -6.17089 0 0
lowerback 13.8639 2.02072 -11.8633
upperback -0.387386 0.831159 -0.11803
thorax -8.3933 0.932051 6.48995
lowerneck -3.97965 -5.1265 -7.27335
upperneck 4.98364 -7.20566 6.55667
head 3.18173 -3.54608 2.68532
lclavicle -2.41436e-14 -7.06818e-15 0
lhumerus 6.96485 -12.3115 75.2828
lradius 93.5867 0 0
lwrist 42.0562 0 0
lhand -22.6735 21.04 0
lfingers 7.12502 0 0
lthumb 3.75148 50.6014 0
rclavicle -2.41436e-14 -7.06818e-15 0
rhumerus 9.39128 6.61368 -67.0181
rradius 85.5135 0 0
rwrist -14.0008 0 0
rhand -30.8999 -50.063 0
rfingers 7.12502 0 0
rthumb -4.18095 -79.8318 0
1129
root 0.842609 14.5946 -26.2598 359.285 10.9217 365.468
lfemur -18.889 6.75871 -24.5418
ltibia 67.3551 0 0
lfoot -28.4225 33.4467 0
ltoes -11.7569 0 0
rfemur -51.277 -11.8453 10.7147
rtibia 85.7645 0 0
rfoot 0.369512 3.08555 0
rtoes -5.93553 0 0
lowerback 13.7833 2.10591 -11.8521
upperback -0.353456 0.94965 -0.186899
thorax -8.33038 0.982392 6.38213
lowerneck -3.83625 -5.45519 -7.58211
upperneck 5.17041 -7.6634 6.81305
head 3.26844 -3.77316 2.78578
lclavicle -1.97995e-14 -5.74498e-15 0
lhumerus 3.42628 -12.3106 76.7789
lradius 94.2538 0 0
lwrist 42.4017 0 0
lhand -22.0319 20.1136 0
lfingers 7.12502 0 0
lthumb 4.37065 49.6629 0
rclavicle -1.97995e-14 -5.74498e-15 0
rhumerus 12.0208 5.82438 -65.4099
rradius 85.7524 0 0
rwrist -12.468 0 0
rhand -31.369 -49.7853 0
rfingers 7.12502 0 0
rthumb -4.63382 -79.543 0
1130
root 0.805661 14.5824 -26.1048 359.01 11.7486 365.442
lfemur -17.8108 6.69124 -24.1016
ltibia 67.0096 0 0
lfoot -28.6142 33.5211 0
ltoes -11.7719 0 0
rfemur -50.9792 -11.8147 10.2579
rtibia 84.1013 0 0
rfoot 0.717728 3.30541 0
rtoes -5.71476 0 0
lowerback 13.7028 2.19054 -11.8328
upperback -0.320606 1.06863 -0.252974
thorax -8.26873 1.03273 6.2725
lowerneck -3.69156 -5.78136 -7.88885
upperneck 5.35663 -8.1177 7.06876
head 3.35501 -3.99856 2.88597
lclavicle -1.53986e-14 -4.39338e-15 0
lhumerus -0.111804 -12.3055 78.2689
lradius 94.9225 0 0
lwrist 42.747 0 0
lhand -21.3923 19.2033 0
lfingers 7.12502 0 0
lthumb 4.98789 48.7406 0
rclavicle -1.53986e-14 -4.39338e-15 0
rhumerus 14.6343 5.03557 -63.7981
rradius 86.0046 0 0
rwrist -10.9492 0 0
rhand -31.8311 -49.4885 0
rfingers 7.12502 0 0
rthumb -5.07999 -79.2348 0
1131
root 0.767917 14.5696 -25.9504 358.744 12.57 365.409
lfemur -16.7392 6.63264 -23.6461
ltibia 66.6545 0 0
lfoot -28.7958 33.5831 0
ltoes -11.7998 0 0
rfemur -50.6616 -11.7881 9.79988
rtibia 82.4161 0 0
rfoot 1.0498 3.51209 0
rtoes -5.50756 0 0
lowerback 13.6229 2.27463 -11.8064
upperback -0.288922 1.18786 -0.316611
thorax -8.2087 1.08301 6.16131
lowerneck -3.5456 -6.1055 -8.19382
upperneck 5.54156 -8.56922 7.32398
head 3.44121 -4.2226 2.98596
lclavicle -1.09572e-14 -3.02328e-15 0
lhumerus -3.6502 -12.2976 79.7533
lradius 95.5921 0 0
lwrist 43.0951 0 0
lhand -20.7551 18.3121 0
lfingers 7.12502 0 0
lthumb 5.60288 47.8376 0
rclavicle -1.09572e-14 -3.02328e-15 0
rhumerus 17.234 4.24731 -62.1824
rradius 86.2681 0 0
rwrist -9.44338 0 0
rhand -32.2869 -49.1736 0
rfingers 7.12502 0 0
rthumb -5.52003 -78.9084 0
1132
root 0.729436 14.5566 -25.796 358.487 13.3876 365.369
lfemur -15.6713 6.58099 -23.1766
ltibia 66.2877 0 0
lfoot -28.9671 33.6343 0
ltoes -11.8409 0 0
rfemur -50.3294 -11.7664 9.34203
rtibia 80.7159 0 0
rfoot 1.36535 3.70699 0
rtoes -5.31285 0 0
lowerback 13.5441 2.35815 -11.774
upperback -0.258489 1.30711 -0.378162
thorax -8.15065 1.13317 6.04881
lowerneck -3.39837 -6.42813 -8.49726
upperneck 5.72442 -9.01859 7.5789
head 3.52677 -4.44561 3.08585
lclavicle -6.49183e-15 -1.64458e-15 0
lhumerus -7.18973 -12.2883 81.2326
lradius 96.2623 0 0
lwrist 43.449 0 0
lhand -20.1206 17.4434 0
lfingers 7.12502 0 0
lthumb 6.21529 46.9573 0
rclavicle -6.49183e-15 -1.64458e-15 0
rhumerus 19.8221 3.45964 -60.563
rradius 86.5408 0 0
rwrist -7.94977 0 0
rhand -32.7369 -48.8418 0
rfingers 7.12502 0 0
rthumb -5.95454 -78.5651 0
1133
root 0.690279 14.5432 -25.6412 358.237 14.2034 365.325
lfemur -14.6048 6.53438 -22.6946
ltibia 65.9066 0 0
lfoot -29.1277 33.6767 0
ltoes -11.8954 0 0
rfemur -49.9879 -11.7506 8.88577
rtibia 79.0076 0 0
rfoot 1.66397 3.89151 0
rtoes -5.12959 0 0
lowerback 13.4671 2.44111 -11.7365
upperback -0.229391 1.42613 -0.437982
thorax -8.09495 1.18317 5.93525
lowerneck -3.2499 -6.74975 -8.79942
upperneck 5.90446 -9.46647 7.8337
head 3.61146 -4.66792 3.1857
lclavicle -2.01894e-15 -2.67177e-16 0
lhumerus -10.7312 -12.2788 82.707
lradius 96.9323 0 0
lwrist 43.8116 0 0
lhand -19.489 16.6004 0
lfingers 7.12502 0 0
lthumb 6.8248 46.103 0
rclavicle -2.01894e-15 -2.67177e-16 0
rhumerus 22.4009 2.67262 -58.9397
rradius 86.8206 0 0
rwrist -6.46745 0 0
rhand -33.1818 -48.4943 0
rfingers 7.12502 0 0
rthumb -6.38411 -78.2059 0
